<svg height="511pt" viewBox="-89 1 511 511.99952" width="511pt" xmlns="http://www.w3.org/2000/svg"><path d="m196.765625 129.03125 85.335937-85.332031 42.664063 41.632812-87.484375 87.484375zm0 0" fill="#a97b56"/><path d="m262.53125 116.964844-12.0625-12.066406 46.597656-46.597657 12.210938 11.921875zm0 0" fill="#92543e"/><path d="m256.5 179.199219-58.308594-58.699219h-18.492187l-16.691407 16.410156-111.308593-111.308594c0-9.425781-7.640625-17.066406-17.066407-17.066406h-1.46875c-4.523437 0-8.863281 1.796875-12.066406 5l-7.0625 7.0625c-3.203125 3.203125-5 7.542969-5 12.066406v1.46875c0 9.425782 7.640625 17.066407 17.066406 17.066407l111.078126 111.078125-17.210938 16.921875v51.199219h17.066406v10.746093h102.398438v-10.746093h17.066406zm0 0" fill="#eef1eb"/><path d="m119.964844 179.199219h136.535156v51.199219h-136.535156zm0 0" fill="#db514d"/><path d="m137.03125 230.398438c-17.023438 85.136718-25.597656 171.742187-25.597656 258.5625v14.507812h153.597656v-14.507812c.003906-86.820313-8.574219-173.425782-25.597656-258.5625zm0 0" fill="#abc8bc"/><path d="m51.699219 308.234375 34.132812-34.132813v-128.003906l72.535157-72.53125c7.066406-7.070312 7.066406-18.53125 0-25.601562-7.070313-7.066406-18.53125-7.066406-25.601563 0l-81.066406 81.066406v128l-25.597657 25.601562zm0 0" fill="#9aa099"/><path d="m333.300781 85.28125c-.011719-2.28125-.933593-4.460938-2.5625-6.058594l-42.664062-41.632812c-3.34375-3.261719-8.6875-3.226563-11.988281.078125l-74.898438 74.894531c-.953125-.378906-1.964844-.578125-2.988281-.597656h-14.964844l-25.601563-25.597656 6.765626-6.769532c10.402343-10.398437 10.402343-27.261718 0-37.664062-10.398438-10.402344-27.261719-10.402344-37.664063 0l-23.3125 23.3125-43.46875-43.460938c-1.890625-12.523437-12.652344-21.785156-25.320313-21.785156h-1.457031c-6.796875-.0195312-13.320312 2.679688-18.109375 7.5l-7.066406 7.066406c-4.816406 4.789063-7.519531 11.304688-7.5 18.097656v1.46875c.019531 12.65625 9.265625 23.40625 21.777344 25.320313l43.46875 43.46875-20.078125 20.078125c-1.601563 1.601562-2.5 3.769531-2.5 6.03125v124.46875l-23.101563 23.097656c-3.332031 3.332032-3.332031 8.734375 0 12.066406l25.601563 25.601563c3.332031 3.332031 8.734375 3.332031 12.066406 0l34.132813-34.132813c1.597656-1.601562 2.5-3.769531 2.5-6.035156v-124.464844l17.066406-17.066406 21.71875 21.714844-19.160156 18.835938c-1.632813 1.601562-2.554688 3.792968-2.558594 6.082031v51.199219c0 4.714843 3.820312 8.535156 8.535156 8.535156h6.824219c-15.835938 82.402344-23.835938 166.117187-23.890625 250.027344v14.503906c0 4.714844 3.820312 8.535156 8.53125 8.535156h153.601562c4.710938 0 8.53125-3.820312 8.53125-8.535156v-14.503906c-.058594-83.910157-8.058594-167.625-23.890625-250.027344h6.824219c4.714844 0 8.535156-3.820313 8.535156-8.535156v-51.199219c-.011718-2.238281-.90625-4.382813-2.484375-5.972657l-6.757812-6.828124 75.007812-75.007813c1.617188-1.617187 2.519531-3.820313 2.5-6.109375zm-97.28125 85.386719h-95.199219l42.371094-41.636719h11.441406zm3.414063 51.199219h-8.535156v-34.132813h17.070312v34.132813zm-110.933594 0v-34.132813h17.066406v34.132813zm34.132812-34.132813h17.066407v34.132813h-17.066407zm34.132813 0h17.066406v34.132813h-17.066406zm-164.632813-142.566406c-1.601562-1.601563-3.769531-2.5-6.035156-2.5-4.710937 0-8.53125-3.820313-8.53125-8.535157v-1.46875c.007813-2.257812.90625-4.425781 2.5-6.03125l7.066406-7.066406c1.601563-1.601562 3.773438-2.5 6.042969-2.5h1.457031c4.714844 0 8.535157 3.820313 8.535157 8.53125 0 2.265625.898437 4.433594 2.5 6.035156l45.679687 45.6875-13.527344 13.527344zm47.667969 94.898437c-1.601562 1.601563-2.5 3.769532-2.5 6.035156v124.464844l-25.601562 25.601563-13.535157-13.535157 19.566407-19.566406c1.601562-1.601562 2.5-3.769531 2.503906-6.035156v-124.464844l78.566406-78.566406c3.734375-3.738281 9.796875-3.738281 13.53125 0 3.738281 3.738281 3.738281 9.796875 0 13.535156zm43.699219-19.566406 22.066406-22.066406 22.015625 22.015625-22.261719 21.871093zm133 368.460938v5.972656h-136.535156v-5.972656c.019531-83.921876 8.082031-167.644532 24.082031-250.027344h88.371094c16.003906 82.378906 24.066406 166.105468 24.082031 250.027344zm-12.730469-334.695313-29.988281-30.183594 68.394531-68.394531 8.859375 8.644531-40.570312 40.566407 12.066406 12.066406 40.714844-40.710938 9.386718 9.15625zm0 0"/></svg>