<svg height="512pt" viewBox="0 -38 512 512" width="512pt" xmlns="http://www.w3.org/2000/svg"><g fill-rule="evenodd"><path d="m71.433594 180.234375h188.105468v-162.789063c0-5.449218-4.449218-9.890624-9.902343-9.890624-69.078125 0-99.921875 0-168.300781 0-5.453126 0-9.902344 4.441406-9.902344 9.890624zm0 0" fill="#ffcc73"/><path d="m71.433594 17.445312v162.789063h27.601562v-162.789063c0-5.449218 4.449219-9.890624 9.902344-9.890624h-27.601562c-5.457032.003906-9.902344 4.441406-9.902344 9.890624zm0 0" fill="#f59556"/><path d="m141.601562 42.847656h46.339844c4.167969 0 7.582032-3.410156 7.582032-7.574218v-27.714844h-61.5v27.714844c0 4.164062 3.410156 7.574218 7.578124 7.574218zm0 0" fill="#e8e8e8"/><path d="m134.023438 35.273438c0 4.164062 3.410156 7.570312 7.578124 7.570312h15.410157c-4.167969 0-7.578125-3.40625-7.578125-7.570312v-27.714844h-15.410156zm0 0" fill="#ccc"/><path d="m71.742188 306.535156v101.316406c0 11.316407 8.695312 20.59375 19.324218 20.59375 10.625 0 19.324219-9.277343 19.324219-20.59375v-101.316406l-19.324219-13.75zm0 0" fill="#808080"/><path d="m71.742188 306.535156v101.316406c0 11.316407 8.695312 20.59375 19.324218 20.59375 2.515625 0 4.921875-.503906 7.128906-1.453124-7.128906-3.046876-12.191406-10.480469-12.191406-19.140626v-101.316406zm0 0" fill="#525252"/><path d="m110.390625 306.535156h331.460937v41.96875h-331.460937zm0 0" fill="#b3b3b3"/><path d="m321.234375 355.488281v52.359375c0 11.316406 8.667969 20.59375 19.296875 20.59375 10.625 0 19.324219-9.273437 19.324219-20.59375v-88.183594l-18.988281-13.128906-19.632813 13.128906zm0 0" fill="#808080"/><path d="m441.851562 365.742188v42.105468c0 11.316406 8.671876 20.59375 19.296876 20.59375 10.628906 0 19.328124-9.273437 19.328124-20.59375v-88.183594l-19.800781-14.109374-18.824219 14.109374zm0 0" fill="#808080"/><path d="m321.234375 319.664062v88.183594c0 11.316406 8.667969 20.59375 19.296875 20.59375 2.964844 0 5.757812-.726562 8.277344-1.980468-6.542969-3.324219-11.078125-10.421876-11.078125-18.609376v-88.183593h-16.496094zm0 0" fill="#525252"/><path d="m441.851562 319.664062v88.183594c0 11.316406 8.671876 20.59375 19.296876 20.59375 2.964843 0 5.761718-.726562 8.277343-1.980468-6.542969-3.324219-11.074219-10.421876-11.074219-18.609376v-88.183593h-16.5zm0 0" fill="#525252"/><path d="m58.289062 181.355469c-28.804687 5.558593-50.730468 31.042969-50.730468 61.359375v1.339844c0 34.371093 28.132812 62.480468 62.53125 62.480468h367.121094c34.398437 0 62.5625-28.109375 62.5625-62.480468v-1.339844c0-34.367188-28.164063-62.480469-62.5625-62.480469h-159.859376c-6.824218.085937-12.804687.195313-17.8125.335937v-.335937h-189.449218c-4.027344 0-7.96875.394531-11.800782 1.121094zm0 0" fill="#e8e8e8"/><path d="m33.453125 243.386719c0 20.507812 16.78125 37.273437 37.308594 37.273437h365.808593c20.5 0 37.304688-16.765625 37.304688-37.273437 0-20.507813-16.808594-37.273438-37.304688-37.273438h-365.808593c-1.257813 0-2.488281.054688-3.71875.195313-18.792969 1.871094-33.589844 17.824218-33.589844 37.078125zm0 0" fill="#808080"/><path d="m67.042969 206.308594c-18.792969 1.871094-33.589844 17.824218-33.589844 37.078125 0 20.507812 16.78125 37.273437 37.308594 37.273437h365.808593c1.3125 0 2.628907-.085937 3.914063-.195312h-334.960937c-20.527344 0-37.304688-16.792969-37.304688-37.273438 0-11.402344 5.171875-21.628906 13.308594-28.472656 5.539062-4.695312 12.476562-7.796875 20.054687-8.605469h-30.820312c-1.257813-.003906-2.488281.050781-3.71875.195313zm0 0" fill="#525252"/><path d="m58.289062 181.355469c-28.804687 5.558593-50.730468 31.042969-50.730468 61.359375v1.339844c0 34.371093 28.132812 62.480468 62.53125 62.480468h40.300781c-21.671875 0-40.886719-11.179687-52.101563-28.023437-14.429687-5.171875-24.835937-19.003907-24.835937-35.125 0-16.121094 10.40625-29.953125 24.835937-35.125 1.539063-2.289063 3.21875-4.496094 5.035157-6.589844 9.003906-10.285156 21.335937-17.636719 35.265625-20.316406 3.832031-.726563 7.773437-1.117188 11.800781-1.117188h-40.296875c-4.03125-.003906-7.972656.390625-11.804688 1.117188zm0 0" fill="#ccc"/><path d="m149.347656 243.578125c0 8.300781 6.714844 15.035156 15.019532 15.035156 8.304687 0 15.046874-6.734375 15.046874-15.035156 0-8.269531-6.742187-15.003906-15.046874-15.003906-8.304688 0-15.019532 6.734375-15.019532 15.003906zm0 0" fill="#e8e8e8"/><path d="m218.035156 243.386719c0 8.296875 6.738282 15.003906 15.046875 15.003906 8.304688 0 15.019531-6.707031 15.019531-15.003906 0-8.300781-6.714843-15.003907-15.019531-15.003907-8.308593 0-15.046875 6.703126-15.046875 15.003907zm0 0" fill="#e8e8e8"/><path d="m321.234375 73.917969h159.242187c13.171876 0 23.964844 10.785156 23.964844 23.945312v197.855469c0 13.191406-10.792968 23.945312-23.964844 23.945312h-159.242187c-13.203125 0-23.96875-10.757812-23.96875-23.945312v-197.855469c0-13.160156 10.765625-23.945312 23.96875-23.945312zm0 0" fill="#e8e8e8"/><path d="m341.984375 181.746094h117.738281c4.53125 0 8.253906-3.71875 8.253906-8.269532v-54.878906c0-4.527344-3.71875-8.242187-8.253906-8.242187h-117.738281c-4.558594 0-8.28125 3.714843-8.28125 8.242187v54.878906c0 2.792969 1.402344 5.25 3.527344 6.761719 1.339843.949219 2.992187 1.507813 4.753906 1.507813zm0 0" fill="#55b8e6"/><path d="m341.257812 223.800781c0 6.226563 5.117188 11.339844 11.355469 11.339844h24.355469c6.238281 0 11.328125-5.109375 11.328125-11.339844 0-6.234375-5.089844-11.320312-11.328125-11.320312h-24.355469c-6.238281 0-11.355469 5.085937-11.355469 11.320312zm0 0" fill="#aaf589"/><path d="m416.375 223.800781c0 6.226563 5.117188 11.339844 11.355469 11.339844h24.359375c6.234375 0 11.324218-5.109375 11.324218-11.339844 0-6.234375-5.089843-11.320312-11.324218-11.320312h-24.359375c-6.238281 0-11.355469 5.085937-11.355469 11.320312zm0 0" fill="#fa6969"/><path d="m416.375 271.914062c0 3.40625 1.539062 6.453126 3.914062 8.550782.085938.054687.167969.140625.253907.195312 1.957031 1.621094 4.445312 2.597656 7.1875 2.597656h24.359375c6.234375 0 11.324218-5.113281 11.324218-11.34375 0-.839843-.082031-1.648437-.25-2.460937-1.144531-5.058594-5.675781-8.855469-11.074218-8.855469h-24.359375c-6.238281 0-11.355469 5.085938-11.355469 11.316406zm0 0" fill="#fa6969"/><path d="m344.949219 280.660156c1.957031 1.621094 4.476562 2.597656 7.1875 2.597656h24.359375c2.738281 0 5.230468-.976562 7.1875-2.597656.082031-.054687.167968-.140625.25-.195312 2.378906-2.097656 3.917968-5.144532 3.917968-8.550782 0-6.230468-5.121093-11.316406-11.355468-11.316406h-24.359375c-6.238281 0-11.328125 5.085938-11.328125 11.316406 0 3.40625 1.511718 6.453126 3.886718 8.550782.085938.054687.167969.140625.253907.195312zm0 0" fill="#aaf589"/><path d="m341.257812 223.800781c0 6.226563 5.117188 11.339844 11.355469 11.339844h12.164063c-6.238282 0-11.328125-5.109375-11.328125-11.339844 0-6.234375 5.089843-11.320312 11.328125-11.320312h-12.164063c-6.238281 0-11.355469 5.085937-11.355469 11.320312zm0 0" fill="#52c46d"/><path d="m340.808594 271.914062c0 3.40625 1.511718 6.453126 3.886718 8.550782l.253907.195312c1.957031 1.621094 4.476562 2.597656 7.1875 2.597656h12.191406c-2.738281 0-5.230469-.976562-7.1875-2.597656l-.25-.195312c-2.378906-2.097656-3.914063-5.144532-3.914063-8.550782 0-6.230468 5.117188-11.316406 11.351563-11.316406h-12.191406c-6.238281 0-11.328125 5.085938-11.328125 11.316406zm0 0" fill="#52c46d"/><path d="m416.375 223.800781c0 6.226563 5.117188 11.339844 11.355469 11.339844h12.164062c-6.234375 0-11.324219-5.109375-11.324219-11.339844 0-6.234375 5.089844-11.320312 11.324219-11.320312h-12.164062c-6.238281 0-11.355469 5.085937-11.355469 11.320312zm0 0" fill="#c92858"/><path d="m416.375 271.914062c0 6.230469 5.117188 11.34375 11.355469 11.34375h12.164062c-6.234375 0-11.324219-5.113281-11.324219-11.34375 0-6.230468 5.089844-11.316406 11.324219-11.316406h-12.164062c-6.238281 0-11.355469 5.085938-11.355469 11.316406zm0 0" fill="#c92858"/><path d="m333.703125 118.597656v54.878906c0 2.792969 1.402344 5.25 3.527344 6.761719 1.339843.949219 2.992187 1.507813 4.753906 1.507813h20.613281c-1.765625 0-3.414062-.558594-4.757812-1.507813-2.125-1.511719-3.523438-3.96875-3.523438-6.761719v-54.878906c0-4.527344 3.71875-8.242187 8.28125-8.242187h-20.613281c-4.558594 0-8.28125 3.714843-8.28125 8.242187zm0 0" fill="#507fcf"/><path d="m297.265625 97.863281v197.855469c0 3.882812.921875 7.574219 2.574219 10.816406 3.96875 7.792969 12.082031 13.128906 21.394531 13.128906h33.027344c-9.3125 0-17.394531-5.335937-21.367188-13.128906-1.675781-3.242187-2.601562-6.933594-2.601562-10.816406v-197.855469c0-13.160156 10.769531-23.945312 23.96875-23.945312h-33.03125c-13.199219 0-23.964844 10.785156-23.964844 23.945312zm0 0" fill="#ccc"/><path d="m80.632812 243.804688c0 8.300781 6.742188 15.003906 15.046876 15.003906 8.277343 0 15.019531-6.703125 15.019531-15.003906 0-8.300782-6.738281-15.03125-15.019531-15.03125-8.304688 0-15.046876 6.730468-15.046876 15.03125zm0 0" fill="#e8e8e8"/></g><path d="m164.367188 266.171875c12.460937 0 22.605468-10.136719 22.605468-22.59375 0-12.4375-10.144531-22.558594-22.605468-22.558594-12.449219 0-22.574219 10.117188-22.574219 22.558594 0 12.457031 10.125 22.59375 22.574219 22.59375zm0-30.039063c4.128906 0 7.488281 3.339844 7.488281 7.445313 0 4.125-3.359375 7.480469-7.488281 7.480469-4.113282 0-7.460938-3.355469-7.460938-7.480469 0-4.105469 3.347656-7.445313 7.460938-7.445313zm0 0"/><path d="m233.082031 265.945312c12.449219 0 22.574219-10.121093 22.574219-22.558593 0-12.441407-10.125-22.5625-22.574219-22.5625-12.464843 0-22.605469 10.117187-22.605469 22.5625 0 12.441406 10.140626 22.558593 22.605469 22.558593zm0-30.007812c4.113281 0 7.460938 3.339844 7.460938 7.445312 0 4.105469-3.347657 7.449219-7.460938 7.449219-4.128906 0-7.488281-3.34375-7.488281-7.449219 0-4.105468 3.359375-7.445312 7.488281-7.445312zm0 0"/><path d="m480.476562 66.359375h-159.242187c-17.382813 0-31.527344 14.132813-31.527344 31.503906v74.816407h-22.609375v-155.234376c0-9.617187-7.832031-17.445312-17.460937-17.445312h-168.300781c-9.628907 0-17.457032 7.828125-17.457032 17.445312v75.808594c0 4.171875 3.382813 7.554688 7.554688 7.554688 4.175781 0 7.558594-3.382813 7.558594-7.554688v-75.808594c0-1.265624 1.070312-2.332031 2.34375-2.332031h45.128906v20.160157c0 8.339843 6.792968 15.128906 15.136718 15.128906h46.34375c8.34375 0 15.136719-6.789063 15.136719-15.128906v-20.160157h46.558594c1.269531 0 2.339844 1.066407 2.339844 2.332031v155.234376h-172.984375l.023437-45.277344c0-4.175782-3.382812-7.558594-7.554687-7.5625h-.003906c-4.171876 0-7.554688 3.382812-7.558594 7.554687l-.023438 45.570313c-36.285156 3.105468-63.878906 33.203125-63.878906 71.089844 0 36.628906 28.292969 66.761718 64.183594 69.769531v94.023437c0 15.523438 12.058594 28.152344 26.882812 28.152344 14.824219 0 26.882813-12.628906 26.882813-28.152344v-51.789062h195.726562v51.789062c0 15.523438 12.046875 28.152344 26.855469 28.152344 14.820312 0 26.878906-12.628906 26.878906-28.152344v-51.789062h66.886719v51.789062c0 15.523438 12.046875 28.152344 26.851563 28.152344 14.824218 0 26.882812-12.628906 26.882812-28.152344v-81.546875c13.746094-3.394531 23.96875-15.8125 23.96875-30.582031v-197.855469c0-17.371093-14.140625-31.503906-31.523438-31.503906zm-292.53125-31.070313-46.367187-.015624v-20.160157h46.382813zm-85.109374 372.5625c0 7.1875-5.28125 13.035157-11.769532 13.035157-6.488281 0-11.765625-5.847657-11.765625-13.035157v-93.761718h23.535157zm-32.746094-108.875c-30.3125 0-54.976563-24.636718-54.976563-54.921874 0-31.546876 24.148438-56.261719 54.976563-56.261719h1.339844.003906 218.273437v10.761719h-218.945312c-1.613281 0-3.089844.078124-4.519531.238281-23.003907 2.316406-40.34375 21.480469-40.34375 44.59375 0 24.71875 20.125 44.832031 44.863281 44.832031h218.945312v7.503906c0 1.097656.058594 2.183594.167969 3.253906zm219.617187-85.308593v59.433593h-218.945312c-16.40625 0-29.75-13.328124-29.75-29.714843 0-15.078125 11.761719-28.0625 26.78125-29.5625.03125-.003907.066406-.007813.101562-.011719.871094-.097656 1.808594-.144531 2.867188-.144531zm23.96875 127.277343h-195.726562v-26.855468h177.695312c4.3125 5.980468 10.664063 10.394531 18.03125 12.210937zm38.621094 66.90625c0 7.1875-5.277344 13.035157-11.769531 13.035157-6.472656 0-11.738282-5.847657-11.738282-13.035157v-80.628906h23.507813zm82-66.90625h-66.886719v-13.722656h66.886719zm38.621094 66.90625c0 7.1875-5.277344 13.035157-11.769531 13.035157-6.472657 0-11.738282-5.847657-11.738282-13.035157v-80.628906h23.507813zm23.96875-112.128906c0 9.035156-7.363281 16.386719-16.410157 16.386719h-159.242187c-9.050781 0-16.414063-7.351563-16.414063-16.386719v-197.859375c0-9.035156 7.363282-16.390625 16.414063-16.390625h159.242187c9.046876 0 16.410157 7.355469 16.410157 16.390625zm0 0"/><path d="m459.722656 102.796875h-117.738281c-8.734375 0-15.835937 7.089844-15.835937 15.800781v54.878906c0 8.726563 7.101562 15.828126 15.835937 15.828126h47.125c4.171875 0 7.554687-3.382813 7.554687-7.558594 0-4.175782-3.382812-7.558594-7.554687-7.558594h-47.125c-.386719 0-.722656-.332031-.722656-.714844v-54.875c0-.359375.34375-.6875.722656-.6875h117.738281c.359375 0 .695313.332032.695313.6875v54.875c0 .375-.332031.714844-.695313.714844h-37.921875c-4.171875 0-7.558593 3.382812-7.558593 7.558594 0 4.175781 3.386718 7.558594 7.558593 7.558594h37.921875c8.71875 0 15.808594-7.101563 15.808594-15.828126v-54.878906c0-8.710937-7.089844-15.800781-15.808594-15.800781zm0 0"/><path d="m376.96875 204.925781h-24.355469c-10.429687 0-18.914062 8.464844-18.914062 18.875 0 10.417969 8.484375 18.898438 18.914062 18.898438h24.355469c10.414062 0 18.886719-8.480469 18.886719-18.898438 0-10.410156-8.472657-18.875-18.886719-18.875zm0 22.660157h-24.355469c-2.058593 0-3.796875-1.734376-3.796875-3.785157 0-2.039062 1.738282-3.761719 3.796875-3.761719h24.355469c2.082031 0 3.769531 1.6875 3.769531 3.761719 0 2.050781-1.722656 3.785157-3.769531 3.785157zm0 0"/><path d="m376.496094 253.039062h-24.359375c-10.414063 0-18.886719 8.46875-18.886719 18.875 0 10.421876 8.472656 18.898438 18.886719 18.898438h24.359375c10.425781 0 18.910156-8.476562 18.910156-18.898438 0-10.40625-8.484375-18.875-18.910156-18.875zm0 22.660157h-24.359375c-2.042969 0-3.769531-1.730469-3.769531-3.785157 0-2.074218 1.691406-3.761718 3.769531-3.761718h24.359375c2.058594 0 3.796875 1.722656 3.796875 3.761718 0 2.054688-1.738281 3.785157-3.796875 3.785157zm0 0"/><path d="m426.667969 242.699219h24.359375c10.410156 0 18.882812-8.480469 18.882812-18.898438 0-10.410156-8.472656-18.875-18.882812-18.875h-24.359375c-10.429688 0-18.910157 8.464844-18.910157 18.875 0 10.417969 8.480469 18.898438 18.910157 18.898438zm0-22.660157h24.359375c2.078125 0 3.769531 1.6875 3.769531 3.761719 0 2.050781-1.726563 3.785157-3.769531 3.785157h-24.359375c-2.058594 0-3.796875-1.734376-3.796875-3.785157 0-2.039062 1.738281-3.761719 3.796875-3.761719zm0 0"/><path d="m452.089844 253.039062h-24.359375c-10.425781 0-18.910157 8.46875-18.910157 18.875 0 10.421876 8.484376 18.898438 18.910157 18.898438h24.359375c10.414062 0 18.882812-8.476562 18.882812-18.898438 0-10.40625-8.472656-18.875-18.882812-18.875zm0 22.660157h-24.359375c-2.058594 0-3.796875-1.730469-3.796875-3.785157 0-2.039062 1.738281-3.761718 3.796875-3.761718h24.359375c2.078125 0 3.769531 1.6875 3.769531 3.761718 0 2.054688-1.726563 3.785157-3.769531 3.785157zm0 0"/><path d="m95.679688 266.363281c12.449218 0 22.578124-10.117187 22.578124-22.558593 0-12.457032-10.128906-22.589844-22.578124-22.589844-12.460938 0-22.601563 10.132812-22.601563 22.589844 0 12.441406 10.140625 22.558593 22.601563 22.558593zm0-30.035156c4.117187 0 7.460937 3.355469 7.460937 7.476563 0 4.105468-3.34375 7.449218-7.460937 7.449218-4.128907 0-7.488282-3.34375-7.488282-7.449218 0-4.121094 3.359375-7.476563 7.488282-7.476563zm0 0"/></svg>